<svg width="180" height="180" viewBox="0 0 180 180" fill="none" xmlns="http://www.w3.org/2000/svg">
<g clip-path="url(#clip0_357_242)">
<path d="M0 49.2187C0 22.036 22.036 0 49.2188 0H130.781C157.964 0 180 22.036 180 49.2188V131.133C180 158.316 157.964 180.352 130.781 180.352H49.2188C22.036 180.352 0 158.316 0 131.133V49.2187Z" fill="white"/>
<path fill-rule="evenodd" clip-rule="evenodd" d="M45.1838 22.517C45.2671 20.9879 46.8948 20.0525 48.2535 20.7529C59.6038 26.6039 67.4685 32.0018 71.8847 37.0307C75.5055 41.1537 76.9181 45.2223 75.9474 49.0055C79.9089 48.4418 83.933 46.9455 87.6285 44.7833C87.1791 42.2415 87.4832 39.4815 88.4222 36.2272C88.8705 34.6735 89.4532 33.0238 90.275 30.9191C90.5237 30.2821 91.1949 28.6105 91.748 27.2331L91.7488 27.231L91.7516 27.2241L91.7552 27.215C92.1058 26.3419 92.4078 25.5897 92.5227 25.2989C92.7794 24.6494 93.0134 24.0475 93.2354 23.4642C94.8997 19.0909 97.9522 13.7142 101.038 9.59892C102.602 7.51359 104.084 5.87428 105.37 4.8561C106.18 4.2155 106.944 3.78656 107.727 3.6063C108.941 3.32671 110.145 3.69221 110.913 4.72314C113.072 7.61822 115.763 11.7243 118.782 17.1544C123.347 25.367 127.556 34.7036 131.088 45.1003C134.793 56.0108 135.498 66.4656 133.706 75.7597C133.615 76.2299 133.518 76.6957 133.415 77.1565C133.43 77.0916 133.444 77.0266 133.458 76.9615C135.066 78.8269 135.357 81.4987 130.266 111.994C124.303 147.709 94.591 180.153 88.2227 175.727C84.5051 173.143 82.8021 168.982 80.5103 163.384C78.8762 159.392 76.9428 154.669 73.7664 149.264C71.5816 145.547 69.939 143.387 68.754 141.828C65.9331 138.118 65.7056 137.819 66.9317 128.052C65.207 127.932 63.6493 127.638 62.2308 127.175C59.343 126.234 57.0213 124.607 54.9724 122.237C53.4363 120.459 52.2342 118.573 50.3079 115.123C46.6209 111.386 45.6375 106.556 46.6565 100.737C47.102 98.1922 47.8566 95.689 49.0921 92.3053C49.3246 91.6686 50.1493 89.4546 50.0807 89.6399C50.4493 88.6448 50.7014 87.9396 50.916 87.2932C51.258 86.2628 51.476 85.451 51.5782 84.8308C45.9191 78.0385 46.2135 67.5038 51.3146 56.7176C46.3498 49.2226 44.3494 37.8236 45.1838 22.517ZM55.45 55.2694C55.9239 55.9113 55.9964 56.7661 55.6374 57.479C50.5195 67.6408 50.2207 77.237 55.2938 82.6639C55.6599 83.0556 55.8636 83.5722 55.8636 84.1089C55.8636 85.3357 55.5456 86.7348 54.9174 88.6275C54.6843 89.3296 54.418 90.0744 54.0339 91.1111C54.0982 90.9376 53.2791 93.1365 53.0522 93.7581C51.8953 96.9262 51.2028 99.2234 50.81 101.467C49.9905 106.147 50.7375 109.656 53.4719 112.315C53.6194 112.459 53.7451 112.623 53.8451 112.803C55.7225 116.178 56.8308 117.932 58.1598 119.469C59.7273 121.283 61.4133 122.464 63.5349 123.156C64.8081 123.571 66.2659 123.814 67.9397 123.876C74.5584 109.171 116.83 81.8329 129.204 76.6519C129.334 76.0962 129.455 75.5312 129.566 74.9578C131.219 66.384 130.564 56.6752 127.096 46.4625C123.649 36.3151 119.544 27.2095 115.098 19.2118C112.45 14.4486 110.077 10.7588 108.129 8.06181C108.082 8.09658 108.034 8.13366 107.984 8.17302C107.033 8.92584 105.774 10.3186 104.409 12.1385C101.55 15.9509 98.6921 20.9852 97.1755 24.9705C96.9467 25.5718 96.7062 26.1903 96.4433 26.8556C96.3221 27.1621 96.007 27.947 95.6461 28.8459C95.0969 30.2138 94.4416 31.8458 94.2019 32.4595C93.423 34.4544 92.8795 35.9931 92.4731 37.4014C91.5402 40.6347 91.3889 43.0669 92.05 45.1372C92.3416 46.0505 91.9832 47.0461 91.177 47.5624C85.4615 51.2221 78.8798 53.4809 72.5239 53.4809C70.8107 53.4809 69.8127 51.5414 70.806 50.1423C72.8943 47.2006 72.3345 43.94 68.7194 39.8234C65.0924 35.6933 58.5961 31.0833 49.2581 26.0563C48.8906 39.4959 50.9941 49.2346 55.45 55.2694ZM55.5004 108.228C53.9673 104.849 54.1528 102.507 61.5629 100.843C66.1723 100.744 70.2928 101.791 69.4881 104.47C69.1226 105.687 68.6187 106.334 68.1777 106.901C67.6478 107.582 67.2085 108.147 67.2085 109.443C67.2085 111.817 65.3049 114.389 61.5629 115.179C58.0832 114.193 57.2281 112.211 56.0501 109.48C55.877 109.078 55.6968 108.661 55.5004 108.228ZM107.107 25.8899C102.687 39.3014 104.061 40.5761 108.799 44.9728L108.8 44.9732C109.209 45.3528 109.643 45.7557 110.101 46.1916C111.663 51.4851 113.566 54.1106 115.544 56.8389C116.517 58.1811 117.507 59.5481 118.485 61.27C121.448 66.4918 123.697 61.5193 121.425 54.7204C119.149 36.3812 108.498 17.9784 107.107 25.8899Z" fill="black"/>
</g>
<defs>
<clipPath id="clip0_357_242">
<rect width="180" height="180" fill="white"/>
</clipPath>
</defs>
</svg>
